HIERARCHY
ROOT Hips
{
    OFFSET 0.0 0.0 0.0
    CHANNELS 6 Xposition Yposition Zposition Zrotation Xrotation Yrotation
    JOINT LeftHipJoint
    {
        OFFSET 0.1 0.0 0.0
        CHANNELS 3 Zrotation Xrotation Yrotation
        JOINT LeftUpLeg
        {
            OFFSET 126.64528123005715 0.0 0.0
            CHANNELS 3 Zrotation Xrotation Yrotation
            JOINT LeftLeg
            {
                OFFSET 0.0 0.0 -407.97291302369104
                CHANNELS 3 Zrotation Xrotation Yrotation
                JOINT LeftFoot
                {
                    OFFSET 0.0 0.0 -391.29666652917206
                    CHANNELS 3 Zrotation Xrotation Yrotation
                    End Site
                    {
                        OFFSET 0.0 -0.1 0.0
                    }
                }
            }
        }
    }
    JOINT LowerBack
    {
        OFFSET 0.0 0.0 0.1
        CHANNELS 3 Zrotation Xrotation Yrotation
        JOINT Spine
        {
            OFFSET 0.0 0.0 219.4380878611606
            CHANNELS 3 Zrotation Xrotation Yrotation
            JOINT Spine1
            {
                OFFSET 0.0 0.0 253.58633117323473
                CHANNELS 3 Zrotation Xrotation Yrotation
                JOINT LeftShoulder
                {
                    OFFSET 0.1 0.0 0.0
                    CHANNELS 3 Zrotation Xrotation Yrotation
                    JOINT LeftArm
                    {
                        OFFSET 142.263793834907 0.0 0.0
                        CHANNELS 3 Zrotation Xrotation Yrotation
                        JOINT LeftForeArm
                        {
                            OFFSET 260.8548383095221 0.0 0.0
                            CHANNELS 3 Zrotation Xrotation Yrotation
                            JOINT LeftHand
                            {
                                OFFSET 229.3443791512955 0.0 0.0
                                CHANNELS 3 Zrotation Xrotation Yrotation
                                End Site
                                {
                                    OFFSET 0.1 0.0 0.0
                                }
                            }
                        }
                    }
                }
                JOINT Neck
                {
                    OFFSET 0.0 0.0 0.1
                    CHANNELS 3 Zrotation Xrotation Yrotation
                    JOINT Neck1
                    {
                        OFFSET 0.0 0.0 111.04190971192557
                        CHANNELS 3 Zrotation Xrotation Yrotation
                        End Site
                        {
                            OFFSET 0.0 0.0 119.94616515192898
                        }
                    }
                }
                JOINT RightShoulder
                {
                    OFFSET -0.1 0.0 0.0
                    CHANNELS 3 Zrotation Xrotation Yrotation
                    JOINT RightArm
                    {
                        OFFSET -142.263793834907 0.0 0.0
                        CHANNELS 3 Zrotation Xrotation Yrotation
                        JOINT RightForeArm
                        {
                            OFFSET -260.8548383095221 0.0 0.0
                            CHANNELS 3 Zrotation Xrotation Yrotation
                            JOINT RightHand
                            {
                                OFFSET -229.3443791512955 0.0 0.0
                                CHANNELS 3 Zrotation Xrotation Yrotation
                                End Site
                                {
                                    OFFSET -0.1 0.0 0.0
                                }
                            }
                        }
                    }
                }
            }
        }
    }
    JOINT RightHipJoint
    {
        OFFSET -0.1 0.0 0.0
        CHANNELS 3 Zrotation Xrotation Yrotation
        JOINT RightUpLeg
        {
            OFFSET -126.64528123005715 0.0 0.0
            CHANNELS 3 Zrotation Xrotation Yrotation
            JOINT RightLeg
            {
                OFFSET 0.0 0.0 -407.97291302369104
                CHANNELS 3 Zrotation Xrotation Yrotation
                JOINT RightFoot
                {
                    OFFSET 0.0 0.0 -391.29666652917206
                    CHANNELS 3 Zrotation Xrotation Yrotation
                    End Site
                    {
                        OFFSET 0.0 -0.1 0.0
                    }
                }
            }
        }
    }
}
MOTION
Frames: 11
Frame Time: 0.03333333333333333
0.0 0.0 824.2053123670577 29.464221118452357 5.211402219183319 4.416745776532685 0.0 0.0 1.987846675914698e-16 -0.7459588435126171 -17.542465438925554 -1.6673634264689723 0.33049771642206627 22.068592939169058 -1.0673914120720438 -3.1805546814635168e-15 -1.1034765745125397e-32 3.975693351829396e-16 0.0 0.0 1.987846675914698e-16 0.02558731168485338 0.6186563280477773 0.6277248819637583 0.2584929122415773 -2.2420667147250167e-18 -9.939208091559033e-16 0.0 0.0 -3.975693351829396e-16 -23.80359832012901 8.040140849693545 73.45149338629399 -29.2889880870019 -4.4477936822780926e-17 6.460348588620722e-15 0.0 0.0 7.951386703658792e-16 0.0 0.0 -3.975693351829396e-16 -6.307443943177541 -7.989518967163259 -5.247619311083323 0.0 0.0 -3.975693351829396e-16 17.009988927118144 6.03356855242352 -77.29591589917298 33.016633230243265 0.0 0.0 0.0 0.0 3.1805546814635168e-15 0.0 0.0 1.987846675914698e-16 -0.6063093307914504 -14.282527537769356 -3.3539946932484335 -0.3715725869356356 22.23609176014587 1.0459530964922616 0.0 0.0 -7.951386703658792e-16
0.0 0.0 824.2053123670577 29.485934648803305 5.135853838405724 4.410964772506033 0.0 0.0 0.0 -0.732442629760436 -17.60330557465209 -1.6342920793765654 0.3255854939973759 22.257275053155233 -1.1092269596071893 0.0 0.0 3.975693351829396e-16 0.0 0.0 0.0 0.02661560872088908 0.6577019121148695 0.5979598122598131 0.2247227686408661 1.9839445373413913e-16 -1.9917411695909387e-16 0.0 0.0 7.951386703658792e-16 -23.86089486084019 8.511958608426337 73.41928013189826 -29.14714606291039 -3.230564635498896e-16 1.3882741572912759e-14 9.103681739728452e-32 2.3854160110976368e-15 -4.373262687012335e-15 0.0 0.0 7.951386703658792e-16 -6.285483048200257 -8.020627719151886 -5.150108292089313 0.0 0.0 7.951386703658792e-16 17.130796390500326 6.518274804141655 -77.34977459019022 32.80581442752921 1.4396813059395636e-15 1.615368217663066e-14 0.0 0.0 -1.5902773407317584e-15 0.0 0.0 0.0 -0.5938029072613549 -14.292773465581533 -3.362225795871737 -0.4009255719825848 22.463723680603024 1.1006992344899724 0.0 0.0 3.975693351829396e-16
0.0 0.0 824.2053123670577 29.725797644483094 4.881333962957622 4.379771956021504 0.0 0.0 -1.987846675914698e-16 -0.7055696612636037 -17.449722455798327 -1.574598981133443 0.32275993162786193 22.31564087270087 -1.1706361572326414 0.0 0.0 0.0 0.0 0.0 -1.987846675914698e-16 0.0287747557076014 0.7311946056334011 0.6524119885024656 0.2710502639209228 -9.967417383997014e-16 -1.1903536849056505e-15 -1.034509288605506e-33 -5.963540027744093e-16 -1.9878466759146977e-16 -24.241793757936918 9.56215313718291 73.4719809058037 -29.050875780209736 -3.4497586484115664e-15 -2.5365892288533696e-15 0.0 0.0 1.987846675914698e-15 -1.034509288605506e-33 -5.963540027744093e-16 -1.9878466759146977e-16 -6.393082196335015 -7.992928277581222 -5.100670880144628 -1.034509288605506e-33 -5.963540027744093e-16 -1.9878466759146977e-16 17.31470382843276 7.1878195994768825 -77.50001910489496 32.42429179029459 -3.900966746685635e-16 1.005022912187615e-14 0.0 0.0 -3.1805546814635168e-15 0.0 0.0 -1.987846675914698e-16 -0.5658889683956362 -14.015727272493551 -3.3683490371310376 -0.430473914337184 22.398401893934683 1.140588477495348 0.0 0.0 0.0
0.0 0.0 824.2053123670577 29.921140540194344 4.77529902358801 4.299476402711749 0.0 0.0 -3.975693351829396e-16 -0.6717794532317232 -17.5038842970483 -1.409010766345026 0.34442122233058203 22.476483747839286 -1.2614335208611553 0.0 0.0 -3.975693351829396e-16 0.0 0.0 -3.975693351829396e-16 0.029766204761786628 0.7969555904299155 0.7878994886639645 0.2811871921132749 -1.791983311344375e-15 -1.1883143809569226e-15 -3.103527865816518e-33 -5.963540027744094e-16 -5.963540027744094e-16 -24.326264034542753 10.30373415082608 73.55009950554009 -28.955768929164396 6.5566866634399726e-15 5.0540528600883966e-17 0.0 0.0 -5.963540027744094e-16 -3.103527865816518e-33 -5.963540027744094e-16 -5.963540027744094e-16 -6.584344212350507 -8.130343931454101 -5.102782375003926 -3.103527865816518e-33 -5.963540027744094e-16 -5.963540027744094e-16 17.454718639686405 7.800703107502896 -77.60271359043784 32.41527035110867 1.7755069377685441e-15 6.1082966071609315e-15 0.0 0.0 1.5902773407317584e-15 0.0 0.0 -3.975693351829396e-16 -0.5371752161279854 -14.016063565427945 -3.2182609023638418 -0.4187300118868692 22.467277774736086 1.052838891816399 -3.1805546814635168e-15 -2.2069531490250793e-32 7.951386703658792e-16
0.0 0.0 824.2053123670577 29.838560520546412 4.597068606378756 4.241541933756651 0.0 0.0 -1.987846675914698e-16 -0.6342634759773162 -17.514853179425558 -1.3601038284929265 0.3176685729716749 22.808519070934796 -1.2773287311979065 0.0 0.0 0.0 0.0 0.0 -1.987846675914698e-16 0.031159624502531423 0.8840018375489689 0.955445002130445 0.354887030496437 1.957055649009173e-16 -9.945342013588786e-16 0.0 0.0 -1.987846675914698e-16 -24.171561429547534 10.8633820626817 73.45874078663121 -28.933946424643285 -6.928229708282272e-15 1.7304856356293716e-14 0.0 0.0 1.987846675914698e-15 0.0 0.0 -1.987846675914698e-16 -6.60953474101622 -8.228620177211926 -5.141443010617003 0.0 0.0 -1.987846675914698e-16 17.545176624858986 8.21864564710876 -77.65197398847158 32.4479741258003 -6.495809250882513e-15 1.1827559665805118e-14 6.3611093629270335e-15 8.827812596100317e-32 1.5902773407317584e-15 0.0 0.0 -1.987846675914698e-16 -0.507739106711793 -14.03391320852528 -3.1894741605189063 -0.46281385194067315 22.677557163516276 1.06173390857381 0.0 1.987846675914698e-16 0.0
0.0 0.0 824.2053123670577 29.796672389398733 4.351181447328004 4.229721764198303 -1.7241821476758432e-33 -1.9878466759146977e-16 -9.939233379573488e-16 -0.6102367737474712 -17.482170418607886 -1.359291350352784 0.29046991792837284 23.121416291555395 -1.2939822294430372 -3.1805546814635168e-15 -1.1034765745125397e-32 3.975693351829396e-16 -1.7241821476758432e-33 -1.9878466759146977e-16 -9.939233379573488e-16 0.029833253839445302 0.8777160622416251 1.0469224108376132 0.3884436393073343 4.7168870679117936e-18 1.3914846784566098e-15 0.0 0.0 -1.987846675914698e-16 -23.83627110177208 11.156348610611381 73.1732239928556 -29.489666504232886 4.922482935413681e-15 -6.207206051748798e-15 0.0 0.0 5.963540027744094e-16 0.0 0.0 -1.987846675914698e-16 -6.605267870114687 -8.29922085695769 -5.236278972326773 0.0 0.0 -1.987846675914698e-16 17.649575237914178 8.610946857809703 -77.4219884904061 33.11320976613325 -1.2360072779082162e-15 7.003708047731244e-15 0.0 0.0 1.5902773407317584e-15 -1.7241821476758432e-33 -1.9878466759146977e-16 -9.939233379573488e-16 -0.4874902041750217 -13.971049069628533 -3.2218882846356856 -0.5153747741645912 22.98774832949445 1.1036978869774556 -3.1805546814635168e-15 -1.3914926731402886e-15 -7.951386703658792e-16
0.0 0.0 824.2053123670577 29.763563188347305 4.31826398116413 4.199162325893438 0.0 0.0 9.93923337957349e-17 -0.6084921489793862 -17.61932119934475 -1.3330217936460436 0.29649715338006405 23.391117956086358 -1.3022441087364895 0.0 0.0 0.0 0.0 0.0 9.93923337957349e-17 0.02910307442467841 0.8658425686974999 1.1154059075058007 0.43424762283757945 2.01796431240358e-16 7.943796633344314e-16 0.0 0.0 3.975693351829396e-16 -23.755880950815474 11.63115074108467 72.9342724389371 -30.361309504736017 -1.4273928099504897e-16 -2.5103945006259873e-15 0.0 0.0 1.7890620083232284e-15 0.0 0.0 3.975693351829396e-16 -6.534463766115744 -8.445928990725346 -5.244246770252148 0.0 0.0 3.975693351829396e-16 17.541794500513515 9.137037123274418 -77.12967729642243 34.2885090229479 -3.75023629169178e-15 -1.215691478397993e-14 -8.827812596100317e-32 6.361109362927033e-15 1.5902773407317582e-15 0.0 0.0 9.93923337957349e-17 -0.4867801682944614 -14.10143637909522 -3.1959683162893406 -0.5221679108917369 23.341420852073334 1.068875509479007 0.0 0.0 0.0
0.0 0.0 824.2053123670577 29.7078675442575 4.007624095470029 4.187594317265247 0.0 0.0 9.93923337957349e-17 -0.5843837167235334 -17.396285222693145 -1.3490238901193994 0.2698255743743324 23.717441762953904 -1.3490781161854781 -3.1805546814635168e-15 -1.5902773407317584e-15 -7.951386703658792e-16 0.0 0.0 9.93923337957349e-17 0.02985618097380648 0.9121285703829484 1.173255631478245 0.4804004574032341 3.983992010076077e-16 1.9711620172820776e-16 0.0 0.0 -9.93923337957349e-17 -23.293730128689397 11.61060224964443 72.56202747785453 -31.3565041507788 -7.265894860264899e-15 5.2901809036697014e-15 0.0 0.0 -1.987846675914698e-15 0.0 0.0 -9.93923337957349e-17 -6.4910534279081045 -8.42662579859299 -5.301360874751623 0.0 0.0 -9.93923337957349e-17 17.52698952192431 9.193224681910015 -76.59032671296036 35.60436752944997 -4.000658590710482e-15 -2.055866484996874e-15 0.0 0.0 3.1805546814635168e-15 0.0 0.0 9.93923337957349e-17 -0.46571644671379586 -13.858109414301872 -3.1637216238882298 -0.5409660305854326 23.70940679719219 1.049479981781769 0.0 0.0 -3.975693351829396e-16
0.0 0.0 824.2053123670577 29.607062767529186 3.812170135690855 4.195985869272562 0.0 0.0 -4.969616689786744e-16 -0.5850028016664174 -17.38764518618466 -1.3622421276760777 0.2703648735821432 24.125390803076726 -1.36315922990354 0.0 0.0 3.975693351829396e-16 0.0 0.0 -4.969616689786744e-16 0.03371386262162569 1.0284755784948882 1.2299928194291723 0.4372016787363289 7.955120942238558e-16 9.63579216886489e-17 0.0 0.0 1.987846675914698e-16 -23.186320527818868 11.660557789072392 72.1142269114292 -32.60228139426861 -5.5833718277193656e-15 2.0951774855452614e-15 0.0 0.0 1.1927080055488188e-15 0.0 0.0 1.987846675914698e-16 -6.457176337557135 -8.622681247420262 -5.4458812923828 0.0 0.0 1.987846675914698e-16 17.58211869768947 9.46901696000554 -76.03840320911445 37.24634395994639 3.304094853724412e-17 1.005774274444891e-14 0.0 0.0 1.5902773407317584e-15 0.0 0.0 -4.969616689786744e-16 -0.4656769268025132 -13.84013868727347 -3.127625466005904 -0.5351835413297451 24.160196041217485 0.9512508502396407 0.0 0.0 -3.975693351829396e-16
0.0 0.0 824.2053123670577 29.54316298154491 3.520527214704537 4.2206463943660415 0.0 0.0 0.0 -0.5876761634531027 -17.299779684078505 -1.3884659243300455 0.2726515686993028 24.593619483541833 -1.3939071044336686 0.0 0.0 0.0 0.0 0.0 0.0 0.038152902053272354 1.1526356012960202 1.2394216094342227 0.48320678278447926 2.095569164320695e-18 4.969572507006485e-16 3.4483642953516864e-34 -1.987846675914698e-16 1.987846675914698e-16 -23.266134093633696 11.519651367790903 71.45652143111613 -34.51083551260263 1.267766189738704e-15 -4.081511568556335e-15 3.034560579909484e-32 1.5902773407317588e-15 -2.186631343506168e-15 3.4483642953516864e-34 -1.987846675914698e-16 1.987846675914698e-16 -6.390906385455817 -8.78450779267776 -5.503157659426621 3.4483642953516864e-34 -1.987846675914698e-16 1.987846675914698e-16 17.233296545628743 8.95382584926783 -75.16566106111686 38.486521672334376 1.8127163973983816e-15 -1.4107892149367774e-14 0.0 0.0 3.1805546814635168e-15 0.0 0.0 0.0 -0.4688427119150135 -13.805772699680075 -3.130143902664305 -0.5391939355178502 24.61156190867904 0.9328355566908381 -3.1805546814635168e-15 1.1034765745125397e-32 -3.975693351829396e-16
0.0 0.0 824.2053123670577 29.365927741532662 3.1882136257466325 4.2995895539594375 0.0 0.0 -7.951386703658791e-16 -0.6062411197778176 -17.064606438278936 -1.49392108867648 0.26755696323327216 24.766762268477585 -1.3715118417825563 0.0 0.0 0.0 0.0 0.0 -7.951386703658791e-16 0.04618695387728722 1.3332576649490633 1.162787375705319 0.46537131266152976 -6.092656981651187e-16 -3.178106588433422e-15 0.0 0.0 0.0 -23.070950778894098 10.479018997381043 70.35989917181581 -37.02987994215293 -8.065761184743204e-16 -7.607342475001638e-15 0.0 0.0 -1.5902773407317584e-15 0.0 0.0 0.0 -6.252530416068936 -8.967795468377513 -5.559971664428164 0.0 0.0 0.0 16.833928791540238 7.59480708471123 -73.75272293456261 40.078750160732184 -3.7962560721761026e-15 8.155725871355782e-15 0.0 0.0 -1.5902773407317584e-15 0.0 0.0 -7.951386703658791e-16 -0.4872261644849445 -13.71610955471426 -3.1711530016911653 -0.5291044677321748 25.127336993356455 0.8487670641353312 -1.3793457181406746e-33 1.987846675914698e-16 7.951386703658792e-16
